# xmcd
#
# Track frame offsets:
#	183
#	16063
#	30733
#	49653
#	60610
#	79930
#	96578
#	111315
#	124470
#	140003
#	156435
#	171830
#
# Disc length: 2529 seconds
#
# Revision: 1
# Processed by: cddbd v1.5.2PL0 Copyright (c) Steve Scherf et al.
# Submitted via: audiograbber 1.83.01
#
DISCID=aa09df0c
DTITLE=Majsai Gábor - BaráTOM Jones
DYEAR=1994
DGENRE=Pop
TTITLE0=A múlt varázsa - Green Green Grass Of Home
TTITLE1=Adj egy éjszakát - All Fine Della Strada
TTITLE2=Várj még rám - I'll Never Fall In Love Again
TTITLE3=It's Not Unusual
TTITLE4=A nõké a világ - It's Up To The Woman
TTITLE5=Ne haragudj rám - Detroit City
TTITLE6=Segíts magadon - Gli Occhi Miei
TTITLE7=Thunderball
TTITLE8=Ez nem az a jó hely
TTITLE9=Új nyár
TTITLE10=Mit akarsz elérni
TTITLE11=Hét hosszú éj
EXTD=
EXTT0=
EXTT1=
EXTT2=
EXTT3=
EXTT4=
EXTT5=
EXTT6=
EXTT7=
EXTT8=
EXTT9=
EXTT10=
EXTT11=
PLAYORDER=
